<?xml version="1.0" standalone="no"?>
<!DOCTYPE svg PUBLIC "-//W3C//DTD SVG 1.0//EN" "http://www.w3.org/TR/2001/REC-SVG-20010904/DTD/svg10.dtd">
<svg xmlns="http://www.w3.org/2000/svg" xmlns:xlink="http://www.w3.org/1999/xlink" id="body_1" width="16" height="16">

<g transform="matrix(0.03125 0 0 0.03125 0 0)">
	<g transform="matrix(1 0 0 1 0 0)">
	</g>
    <path transform="matrix(1 0 0 1 0 0)"  d="M204.192 62.194C 218.339 41.722 233.531 20.581 255.155 7.473999C 276.478 20.256 291.521 41.021 305.466 61.13C 338.313 110.884 358.395 170.645 354.344 230.708C 364.959 239.606 375.881 248.149 386.338 257.229C 401.349 271.026 408.358 292.548 404.744 312.556C 399.708 337.831 394.868 363.163 389.538 388.369C 386.575 401.337 369.03 407.274 358.715 398.989C 341.594 384.698 324.899 369.881 307.783 355.572C 294.833 368.034 277.63 376.344 259.569 377.345C 238.778 378.811 218.194 370.189 203.121 356.103C 190.841 365.504 179.455 376.789 167.457 386.858C 161.658 391.518 156.836 397.642 149.973 400.824C 139.333 405.389 125.631 398.576 123.226 387.139C 117.747 362.497 112.023 337.899 106.706 313.2191C 102.385 292.3411 110.038 269.6091 126.125 255.6121C 135.438 247.7901 144.881 240.1251 154.368 232.5161C 157.011 231.1261 155.683 227.9201 155.833 225.565C 153.005 167.614 172.8 110.333 204.192 62.194zM220.995 138.526C 208.571 154.52 210.074 179.294 224.483 193.578C 239.738 210.387 268.633 211 284.589 194.868C 296.906 183.615 301.071 164.722 295.192 149.197C 289.805 134.23 275.383 123.002 259.521 121.606C 244.873 119.92 229.706 126.659 220.995 138.526z" stroke="none" fill="#020202" fill-rule="nonzero" />
	<g transform="matrix(1 0 0 1 0 0)">
	</g>
    <path transform="matrix(1 0 0 1 0 0)"  d="M198.263 407.819C 198.05 400.553 207.093 395.557 213.205 399.402C 239.075 412.722 271.232 412.716 297.101 399.395C 303.038 395.75 311.837 400.128 312.056 407.198C 312.143 422.63 312.161 438.078 312.08 453.515C 312.199 461.048 302.248 465.852 296.399 461.141C 291.947 457.215 287.932 452.8 283.649 448.68C 276.873 461.881 270.486 475.282 263.654 488.452C 260.373 494.727 250.121 494.77 246.777 488.557C 239.907 475.362 233.564 461.881 226.656 448.699C 222.435 452.856 218.408 457.247 213.962 461.167C 208.138 465.901 198.206 461.005 198.287 453.52C 198.163 438.291 198.244 423.055 198.263 407.819z" stroke="none" fill="#020202" fill-rule="nonzero" />
	<g transform="matrix(1 0 0 1 0 0)">
	</g>
    <path transform="matrix(1 0 0 1 0 0)"  d="M275.643 164.509C 275.643 158.7619 273.6111 153.8565 269.5473 149.7927C 265.4835 145.7289 260.5781 143.697 254.831 143.697C 249.0839 143.697 244.1785 145.7289 240.1147 149.7927C 236.0509 153.8565 234.019 158.7619 234.019 164.509C 234.019 170.2561 236.0509 175.1615 240.1147 179.2253C 244.1785 183.2891 249.0839 185.321 254.831 185.321C 260.5781 185.321 265.4835 183.2891 269.5473 179.2253C 273.6111 175.1615 275.643 170.2561 275.643 164.509" stroke="none" fill="#020202" fill-rule="nonzero" />
</g>
</svg>